<svg width="1700" height="1700" viewBox="0 0 1700 1700" fill="none" xmlns="http://www.w3.org/2000/svg">
<g clip-path="url(#clip0_1520_17096)">
<path d="M1631 0H69C30.8924 0 0 30.8924 0 69V1631C0 1669.11 30.8924 1700 69 1700H1631C1669.11 1700 1700 1669.11 1700 1631V69C1700 30.8924 1669.11 0 1631 0Z" fill="#0F1629"/>
<g filter="url(#filter0_ii_1520_17096)">
<path d="M851.242 198.865C978 402 1007 472 1151.24 602C1260.88 700.816 1327.64 717 1383.24 850C1438.85 983 1405.6 1116.35 1327.24 1186C1219.24 1282 1082.24 1276.76 1006.24 1233C939.641 1194.65 929.256 1167.26 912.239 1143.55C905.739 1134.5 898.739 1113.06 894.665 1116.35C892.647 1161.75 905.968 1273.53 975.395 1357.49C1044.82 1441.44 1083.71 1412.62 1094.47 1422.71V1432.8H606.774V1422.71C617.538 1412.62 656.423 1441.44 725.849 1357.49C795.276 1273.53 808.597 1161.75 806.578 1116.35C802.504 1113.05 795.504 1134.5 789.004 1143.55C771.987 1167.26 761.602 1194.65 695.001 1233C619.001 1276.76 482.001 1282 374.001 1186C295.647 1116.35 262.397 983 318.002 850C373.607 717 442.85 707.411 550.002 602C673 481 715.331 401.297 850 198.865V197C850.207 197.311 850.415 197.622 850.621 197.933C850.828 197.622 851.036 197.312 851.243 197C851.243 197.622 851.242 198.244 851.242 198.865Z" fill="url(#paint0_linear_1520_17096)"/>
</g>
<g filter="url(#filter1_d_1520_17096)">
<path d="M822.97 999.497L690.97 1133C643.469 1178.5 521.969 1214 437.47 1124C342.487 1022.82 381.226 901.221 417.469 843.5C457.966 779.003 594.471 728.543 669.471 798.997C735.471 860.996 777 902 791.471 916.497" stroke="#0F1629" stroke-width="20"/>
<path d="M868.969 1061C902.5 1095 993.933 1212.17 1084.47 1222C1194.97 1234 1285.37 1194.49 1330.47 1113.5C1379.47 1025.5 1396.48 899.415 1287.97 782C1220.97 709.5 1080.97 688.215 998.469 763C934.302 821.167 787.969 969.5 696.469 1062C604.92 1154.55 548.47 1141.5 493.972 1109C440.97 1066 404.118 1012.44 431.471 920.5C467.468 799.5 608.472 798 659.472 852L756.502 951" stroke="#0F1629" stroke-width="20"/>
<path d="M889.967 996.5C861.969 1025 814.969 1076.5 758.969 1134C690.454 1204.35 636.969 1226.5 558.967 1226.5C469.854 1226.5 355.932 1142.5 341.467 1050.5C328.966 971 311.966 882.5 414.466 779C496.466 696.2 616 707 671.967 742C707.62 768.146 789.864 849.906 823.5 884.505" stroke="#0F1629" stroke-width="20"/>
<path d="M902.5 1028.5C925.5 1052 969 1102.5 1006.97 1137C1049.5 1175.65 1152.97 1206 1239.97 1145C1326.97 1084 1343.97 938.001 1286.97 853.001C1229.97 768.001 1126.97 738 1033.97 794.501C957.469 863.5 937.5 886.499 904 920" stroke="#0F1629" stroke-width="20"/>
<path d="M935 951.5L1049.97 839C1093.47 803 1183.11 794.652 1240.47 870.5C1300.97 950.501 1269.97 1028 1249.97 1061C1229.97 1094 1127.47 1181.65 1040.47 1099C971.998 1033.95 945.147 1003.83 876.156 937.5" stroke="#0F1629" stroke-width="20"/>
<path d="M840.839 965.547L841.546 964.84C846.037 960.349 853.318 960.349 857.809 964.84L858.517 965.547C863.008 970.038 863.008 977.319 858.517 981.81L857.809 982.518C853.318 987.009 846.037 987.009 841.546 982.518L840.839 981.81C836.348 977.319 836.348 970.038 840.839 965.547Z" fill="#0F1629" stroke="#0F1629"/>
</g>
<g opacity="0.5" filter="url(#filter2_d_1520_17096)">
<path d="M648.444 1399.46C648.803 1399.16 649.256 1399 649.724 1399H1053.28C1053.74 1399 1054.2 1399.16 1054.56 1399.46L1079.76 1420.46C1081.19 1421.66 1080.35 1424 1078.48 1424H624.524C622.654 1424 621.807 1421.66 623.244 1420.46L648.444 1399.46Z" fill="#0F1629"/>
</g>
</g>
<defs>
<filter id="filter0_ii_1520_17096" x="274.38" y="197" width="1152.49" height="1251.8" filterUnits="userSpaceOnUse" color-interpolation-filters="sRGB">
<feFlood flood-opacity="0" result="BackgroundImageFix"/>
<feBlend mode="normal" in="SourceGraphic" in2="BackgroundImageFix" result="shape"/>
<feColorMatrix in="SourceAlpha" type="matrix" values="0 0 0 0 0 0 0 0 0 0 0 0 0 0 0 0 0 0 127 0" result="hardAlpha"/>
<feOffset dx="16" dy="16"/>
<feGaussianBlur stdDeviation="8"/>
<feComposite in2="hardAlpha" operator="arithmetic" k2="-1" k3="1"/>
<feColorMatrix type="matrix" values="0 0 0 0 0 0 0 0 0 0 0 0 0 0 0 0 0 0 0.3 0"/>
<feBlend mode="normal" in2="shape" result="effect1_innerShadow_1520_17096"/>
<feColorMatrix in="SourceAlpha" type="matrix" values="0 0 0 0 0 0 0 0 0 0 0 0 0 0 0 0 0 0 127 0" result="hardAlpha"/>
<feOffset dx="-16" dy="12"/>
<feGaussianBlur stdDeviation="8"/>
<feComposite in2="hardAlpha" operator="arithmetic" k2="-1" k3="1"/>
<feColorMatrix type="matrix" values="0 0 0 0 0 0 0 0 0 0 0 0 0 0 0 0 0 0 0.2 0"/>
<feBlend mode="normal" in2="effect1_innerShadow_1520_17096" result="effect2_innerShadow_1520_17096"/>
</filter>
<filter id="filter1_d_1520_17096" x="322.005" y="705.767" width="1072.67" height="546.733" filterUnits="userSpaceOnUse" color-interpolation-filters="sRGB">
<feFlood flood-opacity="0" result="BackgroundImageFix"/>
<feColorMatrix in="SourceAlpha" type="matrix" values="0 0 0 0 0 0 0 0 0 0 0 0 0 0 0 0 0 0 127 0" result="hardAlpha"/>
<feOffset dx="8" dy="8"/>
<feGaussianBlur stdDeviation="4"/>
<feComposite in2="hardAlpha" operator="out"/>
<feColorMatrix type="matrix" values="0 0 0 0 0 0 0 0 0 0 0 0 0 0 0 0 0 0 0.25 0"/>
<feBlend mode="normal" in2="BackgroundImageFix" result="effect1_dropShadow_1520_17096"/>
<feBlend mode="normal" in="SourceGraphic" in2="effect1_dropShadow_1520_17096" result="shape"/>
</filter>
<filter id="filter2_d_1520_17096" x="622.521" y="1399" width="473.96" height="41" filterUnits="userSpaceOnUse" color-interpolation-filters="sRGB">
<feFlood flood-opacity="0" result="BackgroundImageFix"/>
<feColorMatrix in="SourceAlpha" type="matrix" values="0 0 0 0 0 0 0 0 0 0 0 0 0 0 0 0 0 0 127 0" result="hardAlpha"/>
<feOffset dx="8" dy="8"/>
<feGaussianBlur stdDeviation="4"/>
<feComposite in2="hardAlpha" operator="out"/>
<feColorMatrix type="matrix" values="0 0 0 0 0 0 0 0 0 0 0 0 0 0 0 0 0 0 0.25 0"/>
<feBlend mode="normal" in2="BackgroundImageFix" result="effect1_dropShadow_1520_17096"/>
<feBlend mode="normal" in="SourceGraphic" in2="effect1_dropShadow_1520_17096" result="shape"/>
</filter>
<linearGradient id="paint0_linear_1520_17096" x1="851" y1="157" x2="885.304" y2="1502.56" gradientUnits="userSpaceOnUse">
<stop offset="0.150529" stop-color="#F7B622"/>
<stop offset="0.899587" stop-color="#A07209"/>
</linearGradient>
<clipPath id="clip0_1520_17096">
<rect width="1700" height="1700" fill="white"/>
</clipPath>
</defs>
</svg>
