<svg width="1300" height="1300" viewBox="0 0 1300 1300" fill="none" xmlns="http://www.w3.org/2000/svg">
<g clip-path="url(#clip0_1546_3382)">
<path d="M1247.24 0H52.7647C23.6236 0 0 23.6236 0 52.7647V1247.24C0 1276.38 23.6236 1300 52.7647 1300H1247.24C1276.38 1300 1300 1276.38 1300 1247.24V52.7647C1300 23.6236 1276.38 0 1247.24 0Z" fill="#0F1629"/>
<g filter="url(#filter0_ii_1546_3382)">
<path d="M651.242 33.865C778 237 807 307 951.24 437C1060.88 535.816 1127.64 552 1183.24 685C1238.85 818 1205.6 951.35 1127.24 1021C1019.24 1117 882.24 1111.76 806.24 1068C739.641 1029.65 729.256 1002.26 712.239 978.55C705.739 969.5 698.739 948.06 694.665 951.35C692.647 996.75 705.968 1108.53 775.395 1192.49C844.82 1276.44 883.71 1247.62 894.47 1257.71V1267.8H406.774V1257.71C417.538 1247.62 456.423 1276.44 525.849 1192.49C595.276 1108.53 608.597 996.75 606.578 951.35C602.504 948.05 595.504 969.5 589.004 978.55C571.987 1002.26 561.602 1029.65 495.001 1068C419.001 1111.76 282.001 1117 174.001 1021C95.647 951.35 62.397 818 118.002 685C173.607 552 242.85 542.411 350.002 437C473 316 515.331 236.297 650 33.865V32C650.207 32.311 650.415 32.622 650.621 32.933C650.828 32.622 651.036 32.312 651.243 32C651.243 32.622 651.242 33.244 651.242 33.865Z" fill="url(#paint0_linear_1546_3382)"/>
</g>
<g filter="url(#filter1_d_1546_3382)">
<path d="M684.5 877.5C731.5 918 812.568 1022.61 899 1032C985.432 1041.38 1071.73 998 1109.2 930.701C1155.98 846.69 1164.59 738.091 1061 626C997.038 556.786 865 532.66 751 636C689.742 691.53 611.375 766.499 524.023 854.805C436.624 943.159 376.027 935.026 324 903.999C281.367 872.018 247.578 815.138 284 741.499C348.5 643.999 439 680.499 486.5 718.499L545 775.999" stroke="#0F1629" stroke-width="50"/>
<path d="M671 828C644.271 855.208 594.461 903.107 541 958C475.591 1025.16 415 1042 339 1030C281.71 1020.95 191.375 974.942 167 874C149.614 802.001 153.854 693.6 239 622C327 548 415.57 554.587 469 588C522.43 621.414 568.5 657 617 706" stroke="#0F1629" stroke-width="50"/>
<mask id="path-5-inside-1_1546_3382" fill="white">
<path d="M592.5 868.5L765.5 701C851.5 613.5 981.163 653.5 1022 707.5C1062.84 761.5 1064.35 837.269 1033 889C1001.65 940.731 900.5 981.5 834.5 931.5C768.5 881.5 772.5 880.954 729.5 842.5"/>
</mask>
<path d="M765.5 701L800.28 736.922L800.725 736.491L801.16 736.048L765.5 701ZM1022 707.5L982.12 737.659V737.659L1022 707.5ZM592.5 868.5L627.28 904.422L800.28 736.922L765.5 701L730.72 665.078L557.72 832.579L592.5 868.5ZM765.5 701L801.16 736.048C831.456 705.223 869.025 696.532 904.708 700.829C942.77 705.412 971.682 723.857 982.12 737.659L1022 707.5L1061.88 677.341C1031.48 637.143 975.142 608.588 916.664 601.546C855.806 594.218 785.544 609.277 729.84 665.952L765.5 701ZM1022 707.5L982.12 737.659C1010.47 775.149 1011.09 828.684 990.24 863.085L1033 889L1075.76 914.915C1117.61 845.854 1115.2 747.852 1061.88 677.341L1022 707.5ZM1033 889L990.24 863.085C982.696 875.532 961.725 892.341 933.356 900.225C906.001 907.826 881.682 904.516 864.693 891.646L834.5 931.5L804.307 971.355C853.318 1008.48 912.573 1009.79 960.13 996.574C1006.67 983.64 1051.95 954.199 1075.76 914.915L1033 889ZM834.5 931.5L864.693 891.646C800.843 843.274 807.437 845.121 762.83 805.23L729.5 842.5L696.17 879.771C737.563 916.788 736.157 919.726 804.307 971.355L834.5 931.5Z" fill="#0F1629" mask="url(#path-5-inside-1_1546_3382)"/>
</g>
<g filter="url(#filter2_d_1546_3382)">
<path d="M412.681 1243.46C413.064 1243.16 413.548 1243 414.047 1243H887.956C888.447 1243 888.938 1243.16 889.323 1243.46L896.231 1264.46C897.758 1265.66 896.861 1268 894.864 1268H407.139C405.143 1268 404.238 1265.66 405.773 1264.46L412.681 1243.46Z" fill="#0F1629"/>
</g>
</g>
<defs>
<filter id="filter0_ii_1546_3382" x="74.3796" y="32" width="1152.49" height="1251.8" filterUnits="userSpaceOnUse" color-interpolation-filters="sRGB">
<feFlood flood-opacity="0" result="BackgroundImageFix"/>
<feBlend mode="normal" in="SourceGraphic" in2="BackgroundImageFix" result="shape"/>
<feColorMatrix in="SourceAlpha" type="matrix" values="0 0 0 0 0 0 0 0 0 0 0 0 0 0 0 0 0 0 127 0" result="hardAlpha"/>
<feOffset dx="16" dy="16"/>
<feGaussianBlur stdDeviation="8"/>
<feComposite in2="hardAlpha" operator="arithmetic" k2="-1" k3="1"/>
<feColorMatrix type="matrix" values="0 0 0 0 0 0 0 0 0 0 0 0 0 0 0 0 0 0 0.3 0"/>
<feBlend mode="normal" in2="shape" result="effect1_innerShadow_1546_3382"/>
<feColorMatrix in="SourceAlpha" type="matrix" values="0 0 0 0 0 0 0 0 0 0 0 0 0 0 0 0 0 0 127 0" result="hardAlpha"/>
<feOffset dx="-16" dy="12"/>
<feGaussianBlur stdDeviation="8"/>
<feComposite in2="hardAlpha" operator="arithmetic" k2="-1" k3="1"/>
<feColorMatrix type="matrix" values="0 0 0 0 0 0 0 0 0 0 0 0 0 0 0 0 0 0 0.2 0"/>
<feBlend mode="normal" in2="effect1_innerShadow_1546_3382" result="effect2_innerShadow_1546_3382"/>
</filter>
<filter id="filter1_d_1546_3382" x="133.814" y="539.044" width="1049.68" height="535.526" filterUnits="userSpaceOnUse" color-interpolation-filters="sRGB">
<feFlood flood-opacity="0" result="BackgroundImageFix"/>
<feColorMatrix in="SourceAlpha" type="matrix" values="0 0 0 0 0 0 0 0 0 0 0 0 0 0 0 0 0 0 127 0" result="hardAlpha"/>
<feOffset dx="8" dy="8"/>
<feGaussianBlur stdDeviation="4"/>
<feComposite in2="hardAlpha" operator="out"/>
<feColorMatrix type="matrix" values="0 0 0 0 0 0 0 0 0 0 0 0 0 0 0 0 0 0 0.25 0"/>
<feBlend mode="normal" in2="BackgroundImageFix" result="effect1_dropShadow_1546_3382"/>
<feBlend mode="normal" in="SourceGraphic" in2="effect1_dropShadow_1546_3382" result="shape"/>
</filter>
<filter id="filter2_d_1546_3382" x="405" y="1243" width="508" height="41" filterUnits="userSpaceOnUse" color-interpolation-filters="sRGB">
<feFlood flood-opacity="0" result="BackgroundImageFix"/>
<feColorMatrix in="SourceAlpha" type="matrix" values="0 0 0 0 0 0 0 0 0 0 0 0 0 0 0 0 0 0 127 0" result="hardAlpha"/>
<feOffset dx="8" dy="8"/>
<feGaussianBlur stdDeviation="4"/>
<feComposite in2="hardAlpha" operator="out"/>
<feColorMatrix type="matrix" values="0 0 0 0 0 0 0 0 0 0 0 0 0 0 0 0 0 0 0.25 0"/>
<feBlend mode="normal" in2="BackgroundImageFix" result="effect1_dropShadow_1546_3382"/>
<feBlend mode="normal" in="SourceGraphic" in2="effect1_dropShadow_1546_3382" result="shape"/>
</filter>
<linearGradient id="paint0_linear_1546_3382" x1="651" y1="-8.00001" x2="685.304" y2="1337.56" gradientUnits="userSpaceOnUse">
<stop offset="0.150529" stop-color="#F7B622"/>
<stop offset="0.899587" stop-color="#A07209"/>
</linearGradient>
<clipPath id="clip0_1546_3382">
<rect width="1300" height="1300" fill="white"/>
</clipPath>
</defs>
</svg>
